# xmcd CD database file
#
# Track frame offsets:
#	150
#	21493
#	43315
#
# Disc length: 858 seconds
#
# Revision: 0
# Processed by: cddbd v1.5.1PL0 Copyright (c) Steve Scherf et al.
# Submitted via: CDex 1.51
#
DISCID=25035803
DTITLE=little by little - シンクロ
DYEAR=2005
DGENRE=JPop
TTITLE0=シンクロ
TTITLE1=名前のない今日
TTITLE2=シンクロ -Instrumental-
EXTD=YEAR: 2005
EXTT0=
EXTT1=
EXTT2=
PLAYORDER=
